<svg xmlns="http://www.w3.org/2000/svg" xmlns:xlink="http://www.w3.org/1999/xlink" width="100" zoomAndPan="magnify" viewBox="0 0 75 74.999997" height="100" preserveAspectRatio="xMidYMid meet" version="1.0"><defs><clipPath id="e2162b8c9f"><path d="M 9.925781 53 L 65.425781 53 L 65.425781 71.511719 L 9.925781 71.511719 Z M 9.925781 53 " clip-rule="nonzero"/></clipPath><clipPath id="c97047780f"><path d="M 15 3.261719 L 60 3.261719 L 60 66 L 15 66 Z M 15 3.261719 " clip-rule="nonzero"/></clipPath></defs><rect x="-7.5" width="90" fill="#ffffff" y="-7.5" height="89.999996" fill-opacity="1"/><rect x="-7.5" width="90" fill="#ffffff" y="-7.5" height="89.999996" fill-opacity="1"/><g clip-path="url(#e2162b8c9f)"><path fill="#6c3249" d="M 37.5 71.695312 C 30.390625 71.695312 23.691406 70.882812 18.628906 69.40625 C 12.933594 67.75 9.921875 65.402344 9.921875 62.617188 C 9.921875 57.066406 21.75 54.351562 31.882812 53.714844 C 32.695312 53.660156 33.394531 54.28125 33.445312 55.09375 C 33.5 55.90625 32.878906 56.605469 32.066406 56.65625 C 26.460938 57.007812 21.382812 57.914062 17.769531 59.199219 C 14.152344 60.488281 12.871094 61.847656 12.871094 62.617188 C 12.871094 63.375 14.257812 65.0625 19.453125 66.578125 C 24.253906 67.972656 30.664062 68.746094 37.5 68.746094 C 44.335938 68.746094 50.742188 67.972656 55.542969 66.578125 C 60.738281 65.0625 62.125 63.375 62.125 62.617188 C 62.125 60.632812 55.144531 57.359375 42.515625 56.632812 C 41.703125 56.585938 41.082031 55.890625 41.128906 55.078125 C 41.175781 54.265625 41.875 53.640625 42.6875 53.691406 C 53.015625 54.285156 65.074219 56.980469 65.074219 62.617188 C 65.074219 65.402344 62.066406 67.75 56.367188 69.40625 C 51.308594 70.882812 44.605469 71.695312 37.5 71.695312 Z M 37.5 71.695312 " fill-opacity="1" fill-rule="nonzero"/></g><g clip-path="url(#c97047780f)"><path fill="#6c3249" d="M 37.265625 65.363281 C 36.730469 65.363281 36.238281 65.074219 35.976562 64.605469 C 34.644531 62.203125 32.59375 58.941406 30.222656 55.164062 C 23.589844 44.613281 15.335938 31.484375 15.335938 25.222656 C 15.335938 13.128906 25.171875 3.289062 37.265625 3.289062 C 49.359375 3.289062 59.195312 13.128906 59.195312 25.222656 C 59.195312 31.796875 51.425781 44.027344 44.570312 54.816406 C 42.207031 58.53125 39.976562 62.039062 38.558594 64.605469 C 38.296875 65.074219 37.804688 65.363281 37.265625 65.363281 Z M 37.265625 6.238281 C 26.800781 6.238281 18.285156 14.757812 18.285156 25.222656 C 18.285156 30.632812 26.625 43.90625 32.71875 53.59375 C 34.453125 56.355469 36.015625 58.84375 37.269531 60.945312 C 38.621094 58.675781 40.3125 56.011719 42.078125 53.234375 C 48.058594 43.824219 56.246094 30.9375 56.246094 25.222656 C 56.246094 14.757812 47.734375 6.238281 37.265625 6.238281 Z M 37.265625 6.238281 " fill-opacity="1" fill-rule="nonzero"/></g><path fill="#6c3249" d="M 37.265625 35.066406 C 31.414062 35.066406 26.648438 30.304688 26.648438 24.453125 C 26.648438 18.597656 31.414062 13.835938 37.265625 13.835938 C 43.121094 13.835938 47.882812 18.597656 47.882812 24.453125 C 47.882812 30.304688 43.121094 35.066406 37.265625 35.066406 Z M 37.265625 16.785156 C 33.039062 16.785156 29.597656 20.222656 29.597656 24.453125 C 29.597656 28.679688 33.039062 32.117188 37.265625 32.117188 C 41.492188 32.117188 44.933594 28.679688 44.933594 24.453125 C 44.933594 20.222656 41.492188 16.785156 37.265625 16.785156 Z M 37.265625 16.785156 " fill-opacity="1" fill-rule="nonzero"/></svg>